<svg width="19" height="17" viewBox="0 0 19 17" fill="none" xmlns="http://www.w3.org/2000/svg">
<path d="M18.5963 5.83056C18.2467 5.38985 17.7257 5.13707 17.1666 5.13707H13.8804L14.6753 2.37457C15.0185 1.1818 14.1327 0 12.9121 0C12.376 0 11.8682 0.235746 11.519 0.64685L7.80814 5.015C7.74224 5.09257 7.6485 5.13707 7.55101 5.13707H5.84302V4.7675C5.84302 4.35928 5.51074 4.02837 5.10083 4.02837H0.742187C0.332277 4.02837 0 4.35928 0 4.7675V16.2609C0 16.6691 0.332277 17 0.742187 17H5.10087C5.51078 17 5.84305 16.6691 5.84305 16.2609V15.8913H15.4814C16.3307 15.8913 17.0632 15.3085 17.2626 14.4741L18.9479 7.42438C19.0822 6.86253 18.9541 6.28161 18.5963 5.83056ZM4.35868 15.5217H1.48434V5.50663H4.35868C4.35868 5.76348 4.35868 15.2798 4.35868 15.5217ZM17.5039 7.08205L15.8186 14.1318C15.779 14.2974 15.6404 14.4131 15.4814 14.4131H5.84302V6.61533H7.55101C8.08605 6.61533 8.59278 6.38006 8.94131 5.96981L12.6521 1.60166C12.9031 1.30623 13.3593 1.58185 13.2484 1.96731L12.3875 4.95916C12.1482 5.79042 12.768 6.61533 13.624 6.61533H17.1666C17.3063 6.61533 17.3925 6.6977 17.4315 6.74686C17.506 6.84076 17.5324 6.96294 17.5039 7.08205Z" fill="#3BB54A"/>
</svg>
