<svg width="15" height="14" viewBox="0 0 15 14" fill="none" xmlns="http://www.w3.org/2000/svg">
<path d="M8.82658 7.00015L14.7251 1.49459C15.0916 1.15283 15.0916 0.598303 14.7251 0.256541C14.3587 -0.0855136 13.7652 -0.0855136 13.3987 0.256541L7.50016 5.7621L1.60128 0.256541C1.23481 -0.0855136 0.641325 -0.0855136 0.274854 0.256541C-0.0916178 0.598303 -0.0916178 1.15283 0.274854 1.49459L6.17373 7.00015L0.274854 12.5057C-0.0916178 12.8475 -0.0916178 13.402 0.274854 13.7438C0.458089 13.9145 0.698234 14 0.938067 14C1.1779 14 1.41804 13.9145 1.60128 13.7435L7.50016 8.2379L13.3987 13.7435C13.582 13.9145 13.8221 14 14.0619 14C14.3018 14 14.5419 13.9145 14.7251 13.7435C15.0916 13.4017 15.0916 12.8472 14.7251 12.5054L8.82658 7.00015Z" fill="#FF0000"/>
</svg>
