<svg width="36" height="24" viewBox="0 0 36 24" fill="none" xmlns="http://www.w3.org/2000/svg">
<mask id="path-1-inside-1" fill="white">
<path d="M0 0V23.66H36V11.8583V0H18H0ZM34.8387 7.05087H22.4144C21.9355 5.329 21.0775 4.16642 19.0759 4.16642C17.6898 4.16642 15.3481 5.63438 14.2258 6.40988V3.67625V1.28198H34.8387V4.16642V7.05087ZM21.2277 7.673C21.2277 8.77491 20.2624 9.67138 19.0759 9.67138C18.3902 9.67138 16.7888 8.73248 15.3628 7.6734C16.7966 6.61153 18.4094 5.67463 19.0759 5.67463C20.2624 5.67463 21.2277 6.5711 21.2277 7.673ZM13.0645 1.28198V6.40988C11.9476 5.63817 9.70509 4.16642 8.31689 4.16642C6.31528 4.16642 4.83376 5.329 4.35484 7.05087H1.16129V1.28198H13.0645ZM11.9032 7.6734C10.4695 8.73527 8.79552 9.67138 8.12903 9.67138C6.94253 9.67138 5.51613 8.77531 5.51613 7.6734C5.51613 6.5715 6.94253 5.67463 8.12903 5.67463C8.81474 5.67463 10.4772 6.61433 11.9032 7.6734ZM1.16129 8.33284H4.35484C4.83376 10.0547 6.12743 11.2173 8.12903 11.2173C9.51515 11.2173 11.9421 9.42884 13.0645 8.65334V22.4346H1.16129V8.33284ZM14.2258 22.4346V8.65334C15.3427 9.42504 17.6877 11.2173 19.0759 11.2173C21.0775 11.2173 21.8759 10.0547 22.3548 8.33284H34.8387V15.3837V22.4346H14.2258Z"/>
</mask>
<path d="M0 0V23.66H36V11.8583V0H18H0ZM34.8387 7.05087H22.4144C21.9355 5.329 21.0775 4.16642 19.0759 4.16642C17.6898 4.16642 15.3481 5.63438 14.2258 6.40988V3.67625V1.28198H34.8387V4.16642V7.05087ZM21.2277 7.673C21.2277 8.77491 20.2624 9.67138 19.0759 9.67138C18.3902 9.67138 16.7888 8.73248 15.3628 7.6734C16.7966 6.61153 18.4094 5.67463 19.0759 5.67463C20.2624 5.67463 21.2277 6.5711 21.2277 7.673ZM13.0645 1.28198V6.40988C11.9476 5.63817 9.70509 4.16642 8.31689 4.16642C6.31528 4.16642 4.83376 5.329 4.35484 7.05087H1.16129V1.28198H13.0645ZM11.9032 7.6734C10.4695 8.73527 8.79552 9.67138 8.12903 9.67138C6.94253 9.67138 5.51613 8.77531 5.51613 7.6734C5.51613 6.5715 6.94253 5.67463 8.12903 5.67463C8.81474 5.67463 10.4772 6.61433 11.9032 7.6734ZM1.16129 8.33284H4.35484C4.83376 10.0547 6.12743 11.2173 8.12903 11.2173C9.51515 11.2173 11.9421 9.42884 13.0645 8.65334V22.4346H1.16129V8.33284ZM14.2258 22.4346V8.65334C15.3427 9.42504 17.6877 11.2173 19.0759 11.2173C21.0775 11.2173 21.8759 10.0547 22.3548 8.33284H34.8387V15.3837V22.4346H14.2258Z" fill="black"/>
<path d="M0 0V-5H-5V0H0ZM0 23.66H-5V28.66H0V23.66ZM36 23.66V28.66H41V23.66H36ZM36 0H41V-5H36V0ZM34.8387 7.05087V12.0509H39.8387V7.05087H34.8387ZM22.4144 7.05087L17.5973 8.39071L18.6153 12.0509H22.4144V7.05087ZM14.2258 6.40988H9.22581V15.9424L17.0682 10.5234L14.2258 6.40988ZM14.2258 1.28198V-3.71802H9.22581V1.28198H14.2258ZM34.8387 1.28198H39.8387V-3.71802H34.8387V1.28198ZM15.3628 7.6734L12.387 3.6554L6.96937 7.66782L12.3816 11.6874L15.3628 7.6734ZM13.0645 1.28198H18.0645V-3.71802H13.0645V1.28198ZM13.0645 6.40988L10.2223 10.5235L18.0645 15.9418V6.40988H13.0645ZM4.35484 7.05087V12.0509H8.15394L9.17198 8.39071L4.35484 7.05087ZM1.16129 7.05087H-3.83871V12.0509H1.16129V7.05087ZM1.16129 1.28198V-3.71802H-3.83871V1.28198H1.16129ZM11.9032 7.6734L14.8791 11.6914L20.2967 7.67898L14.8844 3.65936L11.9032 7.6734ZM1.16129 8.33284V3.33284H-3.83871V8.33284H1.16129ZM4.35484 8.33284L9.17198 6.993L8.15394 3.33284H4.35484V8.33284ZM13.0645 8.65334H18.0645V-0.878813L10.2223 4.53975L13.0645 8.65334ZM13.0645 22.4346V27.4346H18.0645V22.4346H13.0645ZM1.16129 22.4346H-3.83871V27.4346H1.16129V22.4346ZM14.2258 22.4346H9.22581V27.4346H14.2258V22.4346ZM14.2258 8.65334L17.068 4.5397L9.22581 -0.878599V8.65334H14.2258ZM22.3548 8.33284V3.33284H18.5557L17.5377 6.993L22.3548 8.33284ZM34.8387 8.33284H39.8387V3.33284H34.8387V8.33284ZM34.8387 22.4346V27.4346H39.8387V22.4346H34.8387ZM-5 0V23.66H5V0H-5ZM0 28.66H36V18.66H0V28.66ZM34.8387 2.05087H22.4144V12.0509H34.8387V2.05087ZM27.2315 5.71103C26.8895 4.48121 26.2416 2.76665 24.787 1.36391C23.1758 -0.189987 21.1391 -0.833579 19.0759 -0.833579V9.16642C19.0924 9.16642 18.9225 9.16837 18.6483 9.0675C18.3567 8.96023 18.0747 8.78324 17.8453 8.56198C17.6311 8.35538 17.5368 8.18227 17.5179 8.14521C17.5031 8.11612 17.5382 8.17846 17.5973 8.39071L27.2315 5.71103ZM19.0759 -0.833579C17.0598 -0.833579 15.1715 0.0831659 14.2589 0.554117C13.0998 1.1523 12.0407 1.84223 11.3834 2.29638L17.0682 10.5234C17.5333 10.202 18.2061 9.77023 18.8449 9.44056C19.1636 9.2761 19.3936 9.17897 19.5287 9.13215C19.7168 9.06692 19.5231 9.16642 19.0759 9.16642V-0.833579ZM14.2258 6.28198H34.8387V-3.71802H14.2258V6.28198ZM16.2277 7.673C16.2277 5.67161 17.8557 4.67138 19.0759 4.67138V14.6714C22.6691 14.6714 26.2277 11.8782 26.2277 7.673H16.2277ZM19.0759 4.67138C19.525 4.67138 19.8484 4.74307 19.9781 4.77514C20.1269 4.81193 20.2124 4.84546 20.2195 4.84823C20.2279 4.85148 20.1301 4.81197 19.9154 4.69332C19.4933 4.46009 18.9265 4.09194 18.344 3.65936L12.3816 11.6874C13.2252 12.3139 14.172 12.9448 15.0786 13.4458C15.5282 13.6942 16.0484 13.9556 16.5944 14.168C17.027 14.3363 17.9571 14.6714 19.0759 14.6714V4.67138ZM18.3387 11.6914C18.9207 11.2604 19.4932 10.8903 19.9207 10.6547C20.1385 10.5346 20.24 10.4931 20.2354 10.4949C20.2305 10.4968 20.1459 10.5303 19.9973 10.5675C19.8704 10.5992 19.5385 10.6746 19.0759 10.6746V0.674629C17.9497 0.674629 17.0134 1.01762 16.5969 1.18033C16.0577 1.39098 15.5414 1.65003 15.0934 1.89697C14.1895 2.39521 13.2387 3.02458 12.387 3.6554L18.3387 11.6914ZM19.0759 10.6746C17.8557 10.6746 16.2277 9.6744 16.2277 7.673H26.2277C26.2277 3.4678 22.6691 0.674629 19.0759 0.674629V10.6746ZM8.06452 1.28198V6.40988H18.0645V1.28198H8.06452ZM15.9067 2.29624C15.3051 1.88056 14.2744 1.18707 13.139 0.583628C12.2419 0.106778 10.3637 -0.833579 8.31689 -0.833579V9.16642C7.86024 9.16642 7.6523 9.06277 7.8155 9.12068C7.93076 9.16156 8.14144 9.25212 8.44581 9.41389C9.05797 9.73925 9.70705 10.1675 10.2223 10.5235L15.9067 2.29624ZM8.31689 -0.833579C4.15805 -0.833579 0.641625 1.74207 -0.462301 5.71103L9.17198 8.39071C9.12656 8.55399 8.99601 8.79115 8.74801 8.97552C8.49907 9.1606 8.30421 9.16642 8.31689 9.16642V-0.833579ZM4.35484 2.05087H1.16129V12.0509H4.35484V2.05087ZM6.16129 7.05087V1.28198H-3.83871V7.05087H6.16129ZM1.16129 6.28198H13.0645V-3.71802H1.16129V6.28198ZM8.92739 3.6554C8.37272 4.0662 7.7975 4.43149 7.35762 4.66839C7.25352 4.72445 7.16898 4.76684 7.1047 4.79716C7.0385 4.82839 7.00901 4.83964 7.01342 4.83795C7.01683 4.83665 7.03534 4.82964 7.06767 4.81921C7.0993 4.80902 7.1537 4.79247 7.22811 4.77414C7.34413 4.74557 7.67052 4.67138 8.12903 4.67138V14.6714C9.24135 14.6714 10.173 14.3359 10.5832 14.1791C11.1214 13.9734 11.6416 13.7192 12.0992 13.4728C13.0213 12.9762 14 12.3425 14.8791 11.6914L8.92739 3.6554ZM8.12903 4.67138C8.67618 4.67138 9.02684 4.83281 9.28971 5.02114C9.47998 5.15747 10.5161 5.98061 10.5161 7.6734H0.516129C0.516129 10.4681 2.26548 12.2902 3.46557 13.1501C4.73826 14.0619 6.39538 14.6714 8.12903 14.6714V4.67138ZM10.5161 7.6734C10.5161 9.36561 9.48065 10.1884 9.29078 10.3245C9.02824 10.5127 8.67725 10.6746 8.12903 10.6746V0.674629C6.39431 0.674629 4.73686 1.28499 3.46451 2.1971C2.26481 3.05713 0.516129 4.8793 0.516129 7.6734H10.5161ZM8.12903 10.6746C7.68286 10.6746 7.36429 10.6038 7.24518 10.5748C7.10486 10.5406 7.02714 10.5103 7.02681 10.5102C7.0206 10.5078 7.04831 10.5182 7.11282 10.5487C7.17543 10.5783 7.25839 10.62 7.3611 10.6755C7.79579 10.9104 8.36633 11.2747 8.92204 11.6874L14.8844 3.65936C14.0141 3.01301 13.0404 2.37792 12.1159 1.87824C11.657 1.6302 11.133 1.37349 10.5882 1.16584C10.1624 1.00357 9.23582 0.674629 8.12903 0.674629V10.6746ZM1.16129 13.3328H4.35484V3.33284H1.16129V13.3328ZM-0.462301 9.67268C0.0109647 11.3742 0.966362 13.0625 2.55087 14.3278C4.16218 15.6146 6.11774 16.2173 8.12903 16.2173V6.21729C8.11544 6.21729 8.1944 6.21596 8.33451 6.26237C8.47817 6.30996 8.63928 6.39254 8.79099 6.51369C9.10853 6.76727 9.17763 7.01333 9.17198 6.993L-0.462301 9.67268ZM8.12903 16.2173C9.4283 16.2173 10.5447 15.8295 11.2184 15.5542C11.9683 15.2478 12.6674 14.8688 13.2401 14.5303C14.3589 13.8689 15.4614 13.0747 15.9068 12.7669L10.2223 4.53975C9.54529 5.0075 8.87311 5.49522 8.15123 5.92197C7.80363 6.12745 7.56595 6.24406 7.43588 6.29721C7.37626 6.32157 7.39383 6.30989 7.47775 6.28887C7.55264 6.2701 7.78399 6.21729 8.12903 6.21729V16.2173ZM8.06452 8.65334V22.4346H18.0645V8.65334H8.06452ZM13.0645 17.4346H1.16129V27.4346H13.0645V17.4346ZM6.16129 22.4346V8.33284H-3.83871V22.4346H6.16129ZM19.2258 22.4346V8.65334H9.22581V22.4346H19.2258ZM11.3836 12.767C11.7553 13.0238 12.8888 13.8536 13.9596 14.5019C14.5225 14.8427 15.2167 15.2284 15.9676 15.5411C16.6473 15.8241 17.7661 16.2173 19.0759 16.2173V6.21729C19.4231 6.21729 19.6593 6.27074 19.744 6.29224C19.8365 6.31571 19.8626 6.33064 19.8114 6.30931C19.6973 6.26181 19.4751 6.15122 19.1387 5.94754C18.4106 5.50675 17.8132 5.05459 17.068 4.5397L11.3836 12.767ZM19.0759 16.2173C21.1462 16.2173 23.1987 15.5675 24.8087 13.9695C26.2362 12.5525 26.8494 10.8325 27.172 9.67268L17.5377 6.993C17.4709 7.23321 17.4309 7.31198 17.4392 7.29526C17.4515 7.27025 17.5434 7.09105 17.7641 6.87206C18.0027 6.63519 18.3015 6.44222 18.6157 6.32483C18.9096 6.21505 19.0934 6.21729 19.0759 6.21729V16.2173ZM22.3548 13.3328H34.8387V3.33284H22.3548V13.3328ZM34.8387 17.4346H14.2258V27.4346H34.8387V17.4346ZM19.2258 6.40988V3.67625H9.22581V6.40988H19.2258ZM19.2258 3.67625V1.28198H9.22581V3.67625H19.2258ZM36 -5H18V5H36V-5ZM18 -5H0V5H18V-5ZM41 23.66V11.8583H31V23.66H41ZM41 11.8583V0H31V11.8583H41ZM29.8387 1.28198V4.16642H39.8387V1.28198H29.8387ZM29.8387 4.16642V7.05087H39.8387V4.16642H29.8387ZM29.8387 8.33284V15.3837H39.8387V8.33284H29.8387ZM29.8387 15.3837V22.4346H39.8387V15.3837H29.8387Z" fill="black" mask="url(#path-1-inside-1)"/>
<mask id="path-3-inside-2" fill="white">
<path d="M20.25 19.9837H30.7016V16.9861V14.7427H20.25V19.9837ZM21.4113 15.9869H29.472V18.5886H21.4113V15.9869Z"/>
</mask>
<path d="M20.25 19.9837H30.7016V16.9861V14.7427H20.25V19.9837ZM21.4113 15.9869H29.472V18.5886H21.4113V15.9869Z" fill="black"/>
<path d="M20.25 19.9837H15.25V24.9837H20.25V19.9837ZM30.7016 19.9837V24.9837H35.7016V19.9837H30.7016ZM30.7016 14.7427H35.7016V9.74268H30.7016V14.7427ZM20.25 14.7427V9.74268H15.25V14.7427H20.25ZM21.4113 15.9869V10.9869H16.4113V15.9869H21.4113ZM29.472 15.9869H34.472V10.9869H29.472V15.9869ZM29.472 18.5886V23.5886H34.472V18.5886H29.472ZM21.4113 18.5886H16.4113V23.5886H21.4113V18.5886ZM20.25 24.9837H30.7016V14.9837H20.25V24.9837ZM30.7016 9.74268H20.25V19.7427H30.7016V9.74268ZM15.25 14.7427V19.9837H25.25V14.7427H15.25ZM21.4113 20.9869H29.472V10.9869H21.4113V20.9869ZM24.472 15.9869V18.5886H34.472V15.9869H24.472ZM29.472 13.5886H21.4113V23.5886H29.472V13.5886ZM26.4113 18.5886V15.9869H16.4113V18.5886H26.4113ZM35.7016 19.9837V16.9861H25.7016V19.9837H35.7016ZM35.7016 16.9861V14.7427H25.7016V16.9861H35.7016Z" fill="black" mask="url(#path-3-inside-2)"/>
</svg>
