<svg width="22" height="11" viewBox="0 0 22 11" fill="none" xmlns="http://www.w3.org/2000/svg">
<path d="M5.95769 9.07138H4.12435C3.87135 9.07138 3.66602 8.90205 3.66602 8.69341C3.66602 8.48476 3.87135 8.31543 4.12435 8.31543H5.95769C6.21069 8.31543 6.41602 8.48476 6.41602 8.69341C6.41602 8.90205 6.21069 9.07138 5.95769 9.07138Z" fill="black"/>
<path d="M20.8547 9.07164H19.7088C19.4558 9.07164 19.2505 8.9023 19.2505 8.69366C19.2505 8.48502 19.4558 8.31568 19.7088 8.31568H20.4743L21.0921 5.6003C21.0838 4.21086 19.6447 3.02402 17.8755 3.02402H14.8661L13.4077 8.31568H16.0422C16.2952 8.31568 16.5005 8.48502 16.5005 8.69366C16.5005 8.9023 16.2952 9.07164 16.0422 9.07164H12.8338C12.6945 9.07164 12.5625 9.01948 12.4754 8.92952C12.3883 8.84032 12.3553 8.72239 12.3865 8.61051L14.053 2.56289C14.1007 2.38977 14.2858 2.26807 14.5003 2.26807H17.8755C20.1498 2.26807 22.0005 3.79433 22.0005 5.66985L21.3048 8.76321C21.2644 8.94237 21.0756 9.07164 20.8547 9.07164Z" fill="black"/>
<path d="M17.8757 10.5835C16.6125 10.5835 15.584 9.73605 15.584 8.69359C15.584 7.65113 16.6125 6.80371 17.8757 6.80371C19.1388 6.80371 20.1673 7.65113 20.1673 8.69359C20.1673 9.73605 19.1388 10.5835 17.8757 10.5835ZM17.8757 7.55966C17.1176 7.55966 16.5007 8.06842 16.5007 8.69359C16.5007 9.31876 17.1176 9.82752 17.8757 9.82752C18.6337 9.82752 19.2507 9.31876 19.2507 8.69359C19.2507 8.06842 18.6337 7.55966 17.8757 7.55966Z" fill="black"/>
<path d="M7.79167 10.5835C6.5285 10.5835 5.5 9.73605 5.5 8.69359C5.5 7.65113 6.5285 6.80371 7.79167 6.80371C9.05484 6.80371 10.0833 7.65113 10.0833 8.69359C10.0833 9.73605 9.05484 10.5835 7.79167 10.5835ZM7.79167 7.55966C7.03359 7.55966 6.41667 8.06842 6.41667 8.69359C6.41667 9.31876 7.03359 9.82752 7.79167 9.82752C8.54975 9.82752 9.16667 9.31876 9.16667 8.69359C9.16667 8.06842 8.54975 7.55966 7.79167 7.55966Z" fill="black"/>
<path d="M5.95899 2.26767H2.29232C2.03932 2.26767 1.83398 2.09834 1.83398 1.88969C1.83398 1.68105 2.03932 1.51172 2.29232 1.51172H5.95899C6.21199 1.51172 6.41732 1.68105 6.41732 1.88969C6.41732 2.09834 6.21199 2.26767 5.95899 2.26767Z" fill="black"/>
<path d="M5.95769 4.53574H1.37435C1.12135 4.53574 0.916016 4.3664 0.916016 4.15776C0.916016 3.94912 1.12135 3.77979 1.37435 3.77979H5.95769C6.21069 3.77979 6.41602 3.94912 6.41602 4.15776C6.41602 4.3664 6.21069 4.53574 5.95769 4.53574Z" fill="black"/>
<path d="M5.95834 6.8038H0.458334C0.205334 6.8038 0 6.63447 0 6.42583C0 6.21718 0.205334 6.04785 0.458334 6.04785H5.95834C6.21134 6.04785 6.41667 6.21718 6.41667 6.42583C6.41667 6.63447 6.21134 6.8038 5.95834 6.8038Z" fill="black"/>
<path d="M12.8327 9.07143H9.62436C9.37136 9.07143 9.16602 8.90209 9.16602 8.69345C9.16602 8.48481 9.37136 8.31547 9.62436 8.31547H12.4669L14.5496 0.755952H4.12435C3.87135 0.755952 3.66602 0.586619 3.66602 0.377976C3.66602 0.169333 3.87135 0 4.12435 0H15.1244C15.2637 0 15.3957 0.0521609 15.4828 0.142119C15.5699 0.231322 15.6029 0.34925 15.5717 0.461131L13.28 8.77661C13.2324 8.94972 13.0463 9.07143 12.8327 9.07143Z" fill="black"/>
</svg>
