<svg width="24" height="24" viewBox="0 0 24 24" fill="none" xmlns="http://www.w3.org/2000/svg">
<path d="M12 0C5.38322 0 0 5.38322 0 12C0 18.6168 5.38322 24 12 24C18.6168 24 24 18.6168 24 12C24 5.38322 18.6169 0 12 0ZM12 22.4653C6.22944 22.4653 1.5347 17.7706 1.5347 12C1.5347 6.22935 6.22944 1.5347 12 1.5347C17.7706 1.5347 22.4653 6.22944 22.4653 12C22.4653 17.7706 17.7706 22.4653 12 22.4653Z" fill="#213768"/>
<path d="M12.0011 5.56982C9.78417 5.56982 7.98047 7.37344 7.98047 9.59049C7.98047 10.0143 8.32399 10.3578 8.74782 10.3578C9.17165 10.3578 9.51517 10.0143 9.51517 9.59049C9.51517 8.21974 10.6304 7.10453 12.0011 7.10453C13.3719 7.10453 14.4871 8.21974 14.4871 9.59049C14.4871 10.9612 13.3719 12.0765 12.0011 12.0765C11.5773 12.0765 11.2338 12.42 11.2338 12.8438V15.7939C11.2338 16.2178 11.5773 16.5613 12.0011 16.5613C12.425 16.5613 12.7685 16.2178 12.7685 15.7939V13.5377C14.6197 13.1785 16.0218 11.5451 16.0218 9.59049C16.0218 7.37344 14.2182 5.56982 12.0011 5.56982Z" fill="#213768"/>
<path d="M12.0017 17.7485C11.7997 17.7485 11.6019 17.8304 11.4595 17.9728C11.3162 18.116 11.2344 18.3138 11.2344 18.5159C11.2344 18.718 11.3162 18.9157 11.4595 19.0581C11.6019 19.2014 11.7997 19.2832 12.0017 19.2832C12.2038 19.2832 12.4016 19.2014 12.544 19.0581C12.6872 18.9157 12.7691 18.718 12.7691 18.5159C12.7691 18.3138 12.6872 18.116 12.544 17.9728C12.4016 17.8304 12.2038 17.7485 12.0017 17.7485Z" fill="#213768"/>
</svg>
