<svg width="39" height="26" viewBox="0 0 39 26" fill="none" xmlns="http://www.w3.org/2000/svg">
<mask id="path-1-inside-1" fill="white">
<path d="M38.8174 7.18232L31.2536 0.380014C31.0104 0.161219 30.616 0.161219 30.3727 0.380014L26.5907 3.78113C26.474 3.88615 26.4084 4.02863 26.4084 4.17721C26.4084 4.32579 26.474 4.46828 26.5907 4.57329L26.968 4.91258L26.101 5.69213C25.5382 6.19809 24.6649 6.33619 23.928 6.03539C23.2371 5.75337 22.4691 5.60438 21.7068 5.60438C20.8016 5.60438 19.917 5.80872 19.1311 6.19576C18.8033 6.12315 18.467 6.08595 18.1272 6.08595C17.6359 6.08595 17.1534 6.16219 16.693 6.31269C15.9579 6.55286 15.1699 6.404 14.6361 5.92415L13.0794 4.52411L13.2648 4.35737C13.3816 4.25236 13.4472 4.10987 13.4472 3.96129C13.4472 3.81271 13.3816 3.67023 13.2648 3.56522L9.48289 0.164096C9.23952 -0.0546988 8.84526 -0.0546988 8.60196 0.164096L0.182412 7.73589C-0.060804 7.95468 -0.060804 8.30931 0.182412 8.52804L3.96426 11.9292C4.0811 12.0342 4.23946 12.0932 4.40476 12.0932C4.57005 12.0932 4.72833 12.0342 4.84526 11.9292L5.0708 11.7263L6.16874 12.7137C6.44578 12.9629 6.62943 13.2739 6.69973 13.6132C7.06429 15.3725 8.0012 16.972 9.40916 18.2389L9.61596 18.4249C9.2188 18.801 9.00034 19.2911 9.00034 19.8117C9.00034 20.3502 9.23358 20.8565 9.65694 21.2373C10.094 21.6303 10.668 21.8268 11.2421 21.8268C11.2795 21.8268 11.3168 21.8259 11.3542 21.8242C11.3239 22.3735 11.5414 22.9319 12.0068 23.3506C12.4303 23.7314 12.9933 23.941 13.592 23.941C13.6087 23.941 13.6253 23.9403 13.642 23.9399C13.6292 24.4708 13.847 25.0053 14.2964 25.4095C14.7198 25.7904 15.2828 26 15.8817 26C16.4805 26 17.0434 25.7902 17.4669 25.4095C17.5025 25.3775 17.5361 25.3443 17.569 25.3107C17.7895 25.3799 18.0227 25.4166 18.2585 25.4166C18.8186 25.4166 19.3448 25.2204 19.7393 24.8644C19.9493 24.6756 20.1087 24.4535 20.2124 24.2116L20.2762 24.269C20.6844 24.6361 21.2206 24.8196 21.7567 24.8196C22.2929 24.8196 22.8291 24.6361 23.2373 24.269C23.4542 24.0739 23.6172 23.8435 23.7205 23.5923C24.0859 23.8313 24.5185 23.951 24.9513 23.951C25.4875 23.951 26.0239 23.7675 26.4325 23.4005C26.8279 23.0449 27.0457 22.5718 27.0457 22.0685C27.0457 21.9164 27.0254 21.7673 26.9868 21.6231C27.3857 21.5502 27.7523 21.3741 28.0464 21.1092C28.4418 20.7536 28.6596 20.2808 28.6596 19.7778C28.6596 19.3815 28.5238 19.0042 28.2731 18.6879L28.7728 18.2385C30.1972 16.957 31.1381 15.3375 31.494 13.555C31.5537 13.2565 31.7181 12.9793 31.9696 12.753L33.828 11.0817L34.1547 11.3755C34.2764 11.4849 34.4358 11.5396 34.5952 11.5396C34.7546 11.5396 34.9141 11.4849 35.0357 11.3755L38.8176 7.97441C38.9344 7.8694 39 7.72691 39 7.57833C39 7.42975 38.9342 7.2874 38.8174 7.18232ZM4.40476 10.741L1.50368 8.13203L9.04231 1.35247L11.9435 3.96143L4.40476 10.741ZM11.9464 20.4452C11.5582 20.7943 10.9263 20.7945 10.5378 20.4452C10.3496 20.276 10.2461 20.0511 10.2461 19.8118C10.2461 19.5726 10.3497 19.3476 10.5379 19.1784C10.732 19.0038 10.987 18.9165 11.2421 18.9165C11.4971 18.9165 11.7523 19.0038 11.9464 19.1784C12.3347 19.5277 12.3347 20.096 11.9464 20.4452ZM14.2962 22.5584C14.1082 22.7277 13.8581 22.8208 13.5919 22.8208C13.3259 22.8208 13.0758 22.7275 12.8877 22.5584C12.4993 22.2092 12.4993 21.6409 12.8877 21.2916C13.0818 21.117 13.3368 21.0296 13.592 21.0296C13.8469 21.0296 14.1021 21.117 14.2962 21.2916C14.6847 21.6408 14.6847 22.2092 14.2962 22.5584ZM16.5857 24.6174C16.3976 24.7866 16.1475 24.8797 15.8815 24.8797C15.6155 24.8797 15.3653 24.7865 15.1773 24.6174C14.7889 24.2681 14.7889 23.6998 15.1773 23.3506C15.3714 23.1759 15.6264 23.0886 15.8815 23.0886C16.1365 23.0886 16.3917 23.1759 16.5857 23.3506C16.9741 23.6998 16.9741 24.2681 16.5857 24.6174ZM27.1651 20.3174C27.005 20.4615 26.7921 20.5409 26.5657 20.5409C26.3393 20.5409 26.1264 20.4615 25.966 20.317L19.9233 14.884C19.6798 14.6653 19.2856 14.6653 19.0424 14.8841C18.7992 15.1029 18.7993 15.4576 19.0425 15.6763L25.5514 21.5292C25.7116 21.6732 25.7998 21.8647 25.7998 22.0685C25.7998 22.2726 25.7116 22.4643 25.5517 22.6081C25.2206 22.9056 24.6821 22.9057 24.3515 22.6083L23.2534 21.6208C23.2473 21.6151 23.2414 21.6094 23.2351 21.6038C23.2332 21.6021 23.2312 21.6007 23.2293 21.599L18.1816 17.0596C17.9382 16.8409 17.544 16.8409 17.3007 17.0596C17.0574 17.2783 17.0574 17.633 17.3007 17.8518L22.3646 22.4057C22.5194 22.5484 22.6046 22.7372 22.6046 22.9375C22.6046 23.1412 22.5163 23.3327 22.3562 23.4767C22.0258 23.7741 21.4878 23.7741 21.157 23.4767L15.6662 18.5387C15.4228 18.3199 15.0286 18.3199 14.7853 18.5387C14.542 18.7574 14.542 19.1121 14.7853 19.3309L18.8554 22.9913C18.8566 22.9923 18.8575 22.9935 18.8587 22.9944C19.0187 23.1381 19.1068 23.3292 19.1068 23.5328C19.1068 23.7364 19.0186 23.928 18.8578 24.0726C18.6979 24.2167 18.4851 24.2961 18.2583 24.2961C18.2036 24.2961 18.15 24.291 18.0976 24.2821C18.1984 23.6716 17.9882 23.0272 17.4667 22.5581C17.0433 22.1774 16.4803 21.9676 15.8815 21.9676C15.8649 21.9676 15.8482 21.9684 15.8316 21.9687C15.8444 21.4379 15.6267 20.9034 15.1772 20.4992C14.7537 20.1184 14.1908 19.9087 13.5919 19.9087C13.5544 19.9087 13.5172 19.9095 13.48 19.9111C13.5099 19.3622 13.2924 18.8043 12.8272 18.3859C12.2609 17.8767 11.465 17.6978 10.7368 17.8483L10.2901 17.4466C9.06067 16.3405 8.24274 14.9439 7.92442 13.4078C7.8078 12.8452 7.50532 12.3311 7.04974 11.9214L5.95173 10.9339L12.1986 5.31605L13.7554 6.7161C14.3538 7.25425 15.1685 7.54223 16.003 7.54223C16.3766 7.54223 16.7545 7.48441 17.1186 7.36543C17.2951 7.30768 17.4777 7.26624 17.6627 7.23993L13.806 10.7084C13.3341 11.1327 13.0742 11.6969 13.0742 12.297C13.0742 12.8971 13.3341 13.4613 13.8059 13.8856C14.293 14.3236 14.9325 14.5425 15.5724 14.5424C16.212 14.5424 16.8518 14.3234 17.3389 13.8856L19.276 12.1436L19.8003 12.6154C19.8004 12.6155 19.8005 12.6156 19.8006 12.6158L19.8224 12.6353L19.8434 12.6542C19.8434 12.6543 19.8436 12.6544 19.8438 12.6545L19.8441 12.6548C19.8502 12.6601 19.856 12.6652 19.8619 12.6703L27.1653 19.2383C27.3255 19.3823 27.4136 19.5738 27.4136 19.7776C27.4136 19.9816 27.3255 20.1732 27.1651 20.3174ZM31.0884 11.9609C30.6562 12.3497 30.3724 12.8325 30.2678 13.3571C29.957 14.9134 29.1353 16.3276 27.8917 17.4465L27.4131 17.877L23.4726 14.3334C23.5583 14.3391 23.6443 14.3428 23.7309 14.3428C24.1299 14.3428 24.5381 14.2799 24.9446 14.1304C25.263 14.0133 25.4155 13.6862 25.2852 13.3999C25.155 13.1136 24.7916 12.9764 24.4729 13.0936C22.8698 13.6834 20.9479 12.0578 20.7339 11.8705C20.7303 11.8673 20.7267 11.8642 20.7231 11.8612L20.701 11.8413C20.7009 11.8413 20.7008 11.8413 20.7008 11.8412L20.6815 11.8239C20.6814 11.8239 20.6813 11.8237 20.6811 11.8237L20.1567 11.3518L20.7513 10.817C20.9947 10.5982 20.9947 10.2435 20.7514 10.0247C20.5081 9.80608 20.1138 9.80601 19.8706 10.0247L18.8369 10.9543C18.8365 10.9547 18.8361 10.955 18.8357 10.9553C18.8353 10.9557 18.8349 10.9561 18.8346 10.9564L16.458 13.0937C15.9696 13.5329 15.1751 13.5327 14.6869 13.0937C14.4503 12.881 14.3201 12.5982 14.3201 12.2973C14.3201 11.9964 14.4503 11.7136 14.6869 11.5009L18.7889 7.81179C19.0171 7.60662 19.2708 7.42612 19.5434 7.27494C20.1911 6.91489 20.9392 6.72459 21.7068 6.72459C22.2927 6.72459 22.8828 6.83899 23.4132 7.05552C24.6199 7.54792 26.0542 7.3185 26.9819 6.48436L27.849 5.70474L32.9471 10.2895L31.0884 11.9609ZM34.595 10.1874L27.912 4.17735L30.8132 1.56839L37.4961 7.57847L34.595 10.1874Z"/>
</mask>
<path d="M38.8174 7.18232L31.2536 0.380014C31.0104 0.161219 30.616 0.161219 30.3727 0.380014L26.5907 3.78113C26.474 3.88615 26.4084 4.02863 26.4084 4.17721C26.4084 4.32579 26.474 4.46828 26.5907 4.57329L26.968 4.91258L26.101 5.69213C25.5382 6.19809 24.6649 6.33619 23.928 6.03539C23.2371 5.75337 22.4691 5.60438 21.7068 5.60438C20.8016 5.60438 19.917 5.80872 19.1311 6.19576C18.8033 6.12315 18.467 6.08595 18.1272 6.08595C17.6359 6.08595 17.1534 6.16219 16.693 6.31269C15.9579 6.55286 15.1699 6.404 14.6361 5.92415L13.0794 4.52411L13.2648 4.35737C13.3816 4.25236 13.4472 4.10987 13.4472 3.96129C13.4472 3.81271 13.3816 3.67023 13.2648 3.56522L9.48289 0.164096C9.23952 -0.0546988 8.84526 -0.0546988 8.60196 0.164096L0.182412 7.73589C-0.060804 7.95468 -0.060804 8.30931 0.182412 8.52804L3.96426 11.9292C4.0811 12.0342 4.23946 12.0932 4.40476 12.0932C4.57005 12.0932 4.72833 12.0342 4.84526 11.9292L5.0708 11.7263L6.16874 12.7137C6.44578 12.9629 6.62943 13.2739 6.69973 13.6132C7.06429 15.3725 8.0012 16.972 9.40916 18.2389L9.61596 18.4249C9.2188 18.801 9.00034 19.2911 9.00034 19.8117C9.00034 20.3502 9.23358 20.8565 9.65694 21.2373C10.094 21.6303 10.668 21.8268 11.2421 21.8268C11.2795 21.8268 11.3168 21.8259 11.3542 21.8242C11.3239 22.3735 11.5414 22.9319 12.0068 23.3506C12.4303 23.7314 12.9933 23.941 13.592 23.941C13.6087 23.941 13.6253 23.9403 13.642 23.9399C13.6292 24.4708 13.847 25.0053 14.2964 25.4095C14.7198 25.7904 15.2828 26 15.8817 26C16.4805 26 17.0434 25.7902 17.4669 25.4095C17.5025 25.3775 17.5361 25.3443 17.569 25.3107C17.7895 25.3799 18.0227 25.4166 18.2585 25.4166C18.8186 25.4166 19.3448 25.2204 19.7393 24.8644C19.9493 24.6756 20.1087 24.4535 20.2124 24.2116L20.2762 24.269C20.6844 24.6361 21.2206 24.8196 21.7567 24.8196C22.2929 24.8196 22.8291 24.6361 23.2373 24.269C23.4542 24.0739 23.6172 23.8435 23.7205 23.5923C24.0859 23.8313 24.5185 23.951 24.9513 23.951C25.4875 23.951 26.0239 23.7675 26.4325 23.4005C26.8279 23.0449 27.0457 22.5718 27.0457 22.0685C27.0457 21.9164 27.0254 21.7673 26.9868 21.6231C27.3857 21.5502 27.7523 21.3741 28.0464 21.1092C28.4418 20.7536 28.6596 20.2808 28.6596 19.7778C28.6596 19.3815 28.5238 19.0042 28.2731 18.6879L28.7728 18.2385C30.1972 16.957 31.1381 15.3375 31.494 13.555C31.5537 13.2565 31.7181 12.9793 31.9696 12.753L33.828 11.0817L34.1547 11.3755C34.2764 11.4849 34.4358 11.5396 34.5952 11.5396C34.7546 11.5396 34.9141 11.4849 35.0357 11.3755L38.8176 7.97441C38.9344 7.8694 39 7.72691 39 7.57833C39 7.42975 38.9342 7.2874 38.8174 7.18232ZM4.40476 10.741L1.50368 8.13203L9.04231 1.35247L11.9435 3.96143L4.40476 10.741ZM11.9464 20.4452C11.5582 20.7943 10.9263 20.7945 10.5378 20.4452C10.3496 20.276 10.2461 20.0511 10.2461 19.8118C10.2461 19.5726 10.3497 19.3476 10.5379 19.1784C10.732 19.0038 10.987 18.9165 11.2421 18.9165C11.4971 18.9165 11.7523 19.0038 11.9464 19.1784C12.3347 19.5277 12.3347 20.096 11.9464 20.4452ZM14.2962 22.5584C14.1082 22.7277 13.8581 22.8208 13.5919 22.8208C13.3259 22.8208 13.0758 22.7275 12.8877 22.5584C12.4993 22.2092 12.4993 21.6409 12.8877 21.2916C13.0818 21.117 13.3368 21.0296 13.592 21.0296C13.8469 21.0296 14.1021 21.117 14.2962 21.2916C14.6847 21.6408 14.6847 22.2092 14.2962 22.5584ZM16.5857 24.6174C16.3976 24.7866 16.1475 24.8797 15.8815 24.8797C15.6155 24.8797 15.3653 24.7865 15.1773 24.6174C14.7889 24.2681 14.7889 23.6998 15.1773 23.3506C15.3714 23.1759 15.6264 23.0886 15.8815 23.0886C16.1365 23.0886 16.3917 23.1759 16.5857 23.3506C16.9741 23.6998 16.9741 24.2681 16.5857 24.6174ZM27.1651 20.3174C27.005 20.4615 26.7921 20.5409 26.5657 20.5409C26.3393 20.5409 26.1264 20.4615 25.966 20.317L19.9233 14.884C19.6798 14.6653 19.2856 14.6653 19.0424 14.8841C18.7992 15.1029 18.7993 15.4576 19.0425 15.6763L25.5514 21.5292C25.7116 21.6732 25.7998 21.8647 25.7998 22.0685C25.7998 22.2726 25.7116 22.4643 25.5517 22.6081C25.2206 22.9056 24.6821 22.9057 24.3515 22.6083L23.2534 21.6208C23.2473 21.6151 23.2414 21.6094 23.2351 21.6038C23.2332 21.6021 23.2312 21.6007 23.2293 21.599L18.1816 17.0596C17.9382 16.8409 17.544 16.8409 17.3007 17.0596C17.0574 17.2783 17.0574 17.633 17.3007 17.8518L22.3646 22.4057C22.5194 22.5484 22.6046 22.7372 22.6046 22.9375C22.6046 23.1412 22.5163 23.3327 22.3562 23.4767C22.0258 23.7741 21.4878 23.7741 21.157 23.4767L15.6662 18.5387C15.4228 18.3199 15.0286 18.3199 14.7853 18.5387C14.542 18.7574 14.542 19.1121 14.7853 19.3309L18.8554 22.9913C18.8566 22.9923 18.8575 22.9935 18.8587 22.9944C19.0187 23.1381 19.1068 23.3292 19.1068 23.5328C19.1068 23.7364 19.0186 23.928 18.8578 24.0726C18.6979 24.2167 18.4851 24.2961 18.2583 24.2961C18.2036 24.2961 18.15 24.291 18.0976 24.2821C18.1984 23.6716 17.9882 23.0272 17.4667 22.5581C17.0433 22.1774 16.4803 21.9676 15.8815 21.9676C15.8649 21.9676 15.8482 21.9684 15.8316 21.9687C15.8444 21.4379 15.6267 20.9034 15.1772 20.4992C14.7537 20.1184 14.1908 19.9087 13.5919 19.9087C13.5544 19.9087 13.5172 19.9095 13.48 19.9111C13.5099 19.3622 13.2924 18.8043 12.8272 18.3859C12.2609 17.8767 11.465 17.6978 10.7368 17.8483L10.2901 17.4466C9.06067 16.3405 8.24274 14.9439 7.92442 13.4078C7.8078 12.8452 7.50532 12.3311 7.04974 11.9214L5.95173 10.9339L12.1986 5.31605L13.7554 6.7161C14.3538 7.25425 15.1685 7.54223 16.003 7.54223C16.3766 7.54223 16.7545 7.48441 17.1186 7.36543C17.2951 7.30768 17.4777 7.26624 17.6627 7.23993L13.806 10.7084C13.3341 11.1327 13.0742 11.6969 13.0742 12.297C13.0742 12.8971 13.3341 13.4613 13.8059 13.8856C14.293 14.3236 14.9325 14.5425 15.5724 14.5424C16.212 14.5424 16.8518 14.3234 17.3389 13.8856L19.276 12.1436L19.8003 12.6154C19.8004 12.6155 19.8005 12.6156 19.8006 12.6158L19.8224 12.6353L19.8434 12.6542C19.8434 12.6543 19.8436 12.6544 19.8438 12.6545L19.8441 12.6548C19.8502 12.6601 19.856 12.6652 19.8619 12.6703L27.1653 19.2383C27.3255 19.3823 27.4136 19.5738 27.4136 19.7776C27.4136 19.9816 27.3255 20.1732 27.1651 20.3174ZM31.0884 11.9609C30.6562 12.3497 30.3724 12.8325 30.2678 13.3571C29.957 14.9134 29.1353 16.3276 27.8917 17.4465L27.4131 17.877L23.4726 14.3334C23.5583 14.3391 23.6443 14.3428 23.7309 14.3428C24.1299 14.3428 24.5381 14.2799 24.9446 14.1304C25.263 14.0133 25.4155 13.6862 25.2852 13.3999C25.155 13.1136 24.7916 12.9764 24.4729 13.0936C22.8698 13.6834 20.9479 12.0578 20.7339 11.8705C20.7303 11.8673 20.7267 11.8642 20.7231 11.8612L20.701 11.8413C20.7009 11.8413 20.7008 11.8413 20.7008 11.8412L20.6815 11.8239C20.6814 11.8239 20.6813 11.8237 20.6811 11.8237L20.1567 11.3518L20.7513 10.817C20.9947 10.5982 20.9947 10.2435 20.7514 10.0247C20.5081 9.80608 20.1138 9.80601 19.8706 10.0247L18.8369 10.9543C18.8365 10.9547 18.8361 10.955 18.8357 10.9553C18.8353 10.9557 18.8349 10.9561 18.8346 10.9564L16.458 13.0937C15.9696 13.5329 15.1751 13.5327 14.6869 13.0937C14.4503 12.881 14.3201 12.5982 14.3201 12.2973C14.3201 11.9964 14.4503 11.7136 14.6869 11.5009L18.7889 7.81179C19.0171 7.60662 19.2708 7.42612 19.5434 7.27494C20.1911 6.91489 20.9392 6.72459 21.7068 6.72459C22.2927 6.72459 22.8828 6.83899 23.4132 7.05552C24.6199 7.54792 26.0542 7.3185 26.9819 6.48436L27.849 5.70474L32.9471 10.2895L31.0884 11.9609ZM34.595 10.1874L27.912 4.17735L30.8132 1.56839L37.4961 7.57847L34.595 10.1874Z" fill="black" stroke="black" stroke-width="10" mask="url(#path-1-inside-1)"/>
<path d="M34.0474 8.56681C34.3799 8.56681 34.6495 8.31603 34.6495 8.00667C34.6495 7.69732 34.3799 7.44653 34.0474 7.44653C33.7149 7.44653 33.4453 7.69732 33.4453 8.00667C33.4453 8.31603 33.7149 8.56681 34.0474 8.56681Z" fill="black" stroke="black" stroke-width="5"/>
<path d="M3.94584 9.12028C4.27837 9.12028 4.54794 8.8695 4.54794 8.56014C4.54794 8.25078 4.27837 8 3.94584 8C3.61332 8 3.34375 8.25078 3.34375 8.56014C3.34375 8.8695 3.61332 9.12028 3.94584 9.12028Z" fill="black" stroke="black" stroke-width="5"/>
</svg>
