<svg width="24" height="28" viewBox="0 0 24 28" fill="none" xmlns="http://www.w3.org/2000/svg">
<path d="M6.79639 12.658L8.85938 19.0881L10.916 12.658H13.8486V21.9001H11.6143V19.7419L11.8301 15.324L9.5957 21.9001H8.12305L5.88232 15.3176L6.09814 19.7419V21.9001H3.87012V12.658H6.79639Z" fill="black"/>
<path d="M18.7386 6.3584L18.7559 4.93944C18.7559 2.21584 16.6791 0 14.1263 0C13.259 0 12.4467 0.25599 11.7521 0.700562C11.0575 0.25599 10.2453 0 9.37794 0C6.82516 0 4.7483 2.21584 4.7483 4.93944V6.3584H0V27.7335H18.0988H18.7563H23.03L23.0123 6.3584H18.7386ZM11.0377 4.93944C11.0377 4.13963 11.3063 3.40564 11.7521 2.83431C12.1979 3.40564 12.4666 4.13963 12.4666 4.93944L12.4924 6.3584H11.0377V4.93944ZM9.37799 1.64412C9.77424 1.64412 10.1529 1.72502 10.5013 1.87069C9.87276 2.71407 9.4967 3.78072 9.4967 4.93944L9.53368 6.3584H6.28941V4.93944C6.28941 3.12241 7.67492 1.64412 9.37799 1.64412ZM17.2149 26.4156H1.33265L1.31499 21.8605L1.35237 16.9663V7.65592H17.2149V26.4156ZM17.2149 6.3584H14.0076V4.93944C14.0076 3.78072 13.6315 2.71412 13.003 1.87069C13.3514 1.72502 13.7301 1.64412 14.1263 1.64412C15.8294 1.64412 17.2149 3.12241 17.2149 4.93944V6.0118V6.3584ZM21.6974 26.4284H18.4275V23.8181V21.5342V16.9663L18.4712 7.65592H21.6974V26.4284Z" fill="black"/>
</svg>
