<svg width="26" height="25" viewBox="0 0 26 25" fill="none" xmlns="http://www.w3.org/2000/svg">
<path d="M23.8333 0H2.64815C1.17474 0 -1.80331e-06 1.01406 -1.80331e-06 2.56589V8.42172C-1.80331e-06 9.9736 1.19867 10.9138 2.67208 10.9138H3.54545L3.52615 12.8767H-1.80331e-06V18.5092C0.212241 19.8545 1.10743 21.0057 2.10315 21.7455L2.64031 22.157C2.93337 22.3113 3.11541 22.6216 3.11541 22.9667V24.6229H11.9634V22.732L13.4727 19.6593L13.4163 16.4068C13.4163 14.4603 12.4324 13.7156 10.5843 13.7156H7.22222V10.8727H15.8889H23.8333C26 10.8727 26 9.69091 26 8.50909V2.6C26 1.04817 26 0 23.8333 0ZM10.6679 14.5174C11.6571 14.5174 12.4619 15.365 12.4619 16.4068V19.2456L10.9041 22.5269V23.6503L4.23042 23.6364V22.9667C4.23042 21.9961 3.71501 21.6789 3.07273 21.0364L2.36364 20.3273C1.89091 19.8545 0.921332 19.2445 0.921332 18.4775V13.7502H3.52133L3.52615 18.3711H4.52083L4.46679 13.2364V7.95479H6.23093V14.5174H10.6679ZM24.9237 8.7473C24.9237 9.92727 24.4478 9.92727 23.8333 9.92727H15.8889H7.22222V6.85455H5.41224H3.52133L3.52615 10.0437H2.67208C0.962961 10.0437 0.962961 8.97718 0.962961 8.50909V5.43636V2.6C0.962961 1.95282 1.2037 0.945455 2.64815 0.945455L7.94444 0.93946H13.2407H23.8333C24.7963 0.945455 24.9237 1.08718 24.9237 2.56589V8.7473Z" fill="black"/>
<path d="M2.83594 2.87866H14.1814V3.82412H2.83594V2.87866Z" fill="black"/>
<path d="M8.98047 5.71484H14.1805V6.6603H8.98047V5.71484Z" fill="black"/>
<path d="M19.1468 6.66083L17.7286 5.24265L17.0195 5.7433L19.0065 8.07901L23.6377 4.57917L22.9286 3.82446L19.1468 6.66083Z" fill="black"/>
</svg>
