<svg width="18" height="20" viewBox="0 0 18 20" fill="none" xmlns="http://www.w3.org/2000/svg">
<path d="M16.4384 12.3122C16.1965 12.3122 16.0004 12.5243 16.0004 12.7859V16.9914C15.9996 17.7759 15.4119 18.4116 14.6864 18.4123H2.39697C1.67155 18.4116 1.08386 17.7759 1.08301 16.9914V4.64852C1.08386 3.86423 1.67155 3.2285 2.39697 3.22757H6.28582C6.52774 3.22757 6.7238 3.01554 6.7238 2.75392C6.7238 2.49249 6.52774 2.28027 6.28582 2.28027H2.39697C1.18805 2.28175 0.2084 3.34118 0.207031 4.64852V16.9916C0.2084 18.2989 1.18805 19.3583 2.39697 19.3598H14.6864C15.8954 19.3583 16.875 18.2989 16.8764 16.9916V12.7859C16.8764 12.5243 16.6803 12.3122 16.4384 12.3122Z" fill="black"/>
<path d="M16.7026 1.0618C15.9329 0.229399 14.6849 0.229399 13.9152 1.0618L6.10126 9.51203C6.04771 9.56994 6.00904 9.64173 5.98885 9.72055L4.9613 13.7323C4.91904 13.8968 4.96198 14.073 5.07353 14.1938C5.18525 14.3144 5.34813 14.3608 5.50022 14.3153L9.20994 13.2039C9.28282 13.1821 9.34921 13.1403 9.40276 13.0824L17.2165 4.63195C17.9851 3.79899 17.9851 2.45056 17.2165 1.6176L16.7026 1.0618ZM7.05559 9.8199L13.4507 2.90386L15.5132 5.13428L9.11789 12.0503L7.05559 9.8199ZM6.64361 10.7139L8.29136 12.496L6.01212 13.1789L6.64361 10.7139ZM16.5972 3.96217L16.1327 4.4645L14.0701 2.2339L14.5347 1.73158C14.9623 1.26921 15.6555 1.26921 16.0831 1.73158L16.5972 2.28737C17.0241 2.75029 17.0241 3.49944 16.5972 3.96217Z" fill="black"/>
</svg>
