<svg width="24" height="24" viewBox="0 0 24 24" fill="none" xmlns="http://www.w3.org/2000/svg">
<path d="M21.8496 15.9846C19.6921 15.9846 17.6346 15.5146 15.7371 14.5871C15.4396 14.4446 15.0946 14.4221 14.7796 14.5296C14.4646 14.6396 14.2071 14.8696 14.0621 15.1671L13.1621 17.0296C10.4621 15.4796 8.22211 13.2371 6.66961 10.5371L8.53461 9.63711C8.83461 9.49211 9.06211 9.23461 9.17211 8.91961C9.27961 8.60461 9.25961 8.25961 9.11461 7.96211C8.18461 6.06711 7.71461 4.00961 7.71461 1.84961C7.71461 1.15961 7.15461 0.599609 6.46461 0.599609H1.84961C1.15961 0.599609 0.599609 1.15961 0.599609 1.84961C0.599609 13.5671 10.1321 23.0996 21.8496 23.0996C22.5396 23.0996 23.0996 22.5396 23.0996 21.8496V17.2346C23.0996 16.5446 22.5396 15.9846 21.8496 15.9846Z" fill="black"/>
</svg>
