<svg width="18" height="20" viewBox="0 0 18 20" fill="none" xmlns="http://www.w3.org/2000/svg">
<path d="M15.6071 0C15.2324 0 14.9286 0.319796 14.9286 0.714299V3.32356C11.435 -0.236719 5.86108 -0.141713 2.47882 3.53567C0.884836 5.26875 -0.00439701 7.58776 1.63497e-05 9.99998C1.63497e-05 10.3945 0.303823 10.7143 0.678601 10.7143C1.05338 10.7143 1.35715 10.3945 1.35715 9.99998C1.35798 5.66061 4.70049 2.14353 8.82292 2.1444C10.9166 2.14482 12.9138 3.07081 14.3274 4.69641L11.3213 5.75139C10.9653 5.87607 10.7727 6.28091 10.8911 6.65566C11.0096 7.03041 11.3942 7.23318 11.7502 7.1085L15.8216 5.67995C16.0995 5.58252 16.2867 5.3083 16.2858 4.99997V0.714257C16.2857 0.319796 15.9819 0 15.6071 0Z" fill="black"/>
<path d="M16.9646 9.28564C16.5898 9.28564 16.286 9.60544 16.286 9.99994C16.2852 14.3393 12.9427 17.8564 8.82026 17.8555C6.72661 17.8551 4.72943 16.9291 3.3158 15.3035L6.32186 14.2485C6.67787 14.1238 6.87051 13.719 6.75206 13.3443C6.63362 12.9695 6.24902 12.7667 5.89301 12.8914L1.82158 14.32C1.54366 14.4174 1.35651 14.6916 1.35743 14.9999V19.2856C1.35743 19.6801 1.66123 19.9999 2.03601 19.9999C2.41079 19.9999 2.71459 19.6801 2.71459 19.2856V16.6763C6.20814 20.2366 11.7821 20.1416 15.1643 16.4642C16.7583 14.7312 17.6475 12.4122 17.6431 9.99994C17.6432 9.60544 17.3394 9.28564 16.9646 9.28564Z" fill="black"/>
</svg>
