<svg width="30" height="30" viewBox="0 0 30 30" fill="none" xmlns="http://www.w3.org/2000/svg">
<path d="M27.5 0H3.05555C1.35547 0 -2.08074e-06 1.1979 -2.08074e-06 3.03107V9.94853C-2.08074e-06 11.7818 1.38309 12.8924 3.08317 12.8924H4.09091L4.06863 15.2112H-2.08074e-06V21.8648C0.244893 23.4541 1.27781 24.8139 2.42671 25.6878L3.04651 26.174C3.38465 26.3563 3.59471 26.7228 3.59471 27.1305V29.0869H13.8039V26.8532L15.5455 23.2234L15.4803 19.3812C15.4803 17.0818 14.345 16.2022 12.2126 16.2022H8.33333V12.8439H18.3333H27.5C30 12.8439 30 11.4478 30 10.0517V3.07137C30 1.2382 30 0 27.5 0ZM12.3092 17.1493C13.4506 17.1493 14.3791 18.1506 14.3791 19.3812V22.7348L12.5817 26.6109V27.9379L4.88126 27.9215V27.1305C4.88126 25.9839 4.28655 25.6091 3.54545 24.8502L2.72727 24.0125C2.18182 23.4541 1.06307 22.7334 1.06307 21.8273V16.243H4.06307L4.06863 21.7017H5.21634L5.15398 15.6361V9.39696H7.18954V17.1493H12.3092ZM28.7582 10.3331C28.7582 11.727 28.209 11.727 27.5 11.727H18.3333H8.33333V8.09724H6.24489H4.06307L4.06863 11.8646H3.08317C1.11111 11.8646 1.11111 10.6047 1.11111 10.0517V6.42195V3.07137C1.11111 2.30686 1.38889 1.11686 3.05555 1.11686L9.16667 1.10978H15.2778H27.5C28.6111 1.11686 28.7582 1.28428 28.7582 3.03107V10.3331Z" fill="black"/>
<path d="M3.27344 3.39917H16.3643V4.51603H3.27344V3.39917Z" fill="black"/>
<path d="M10.3633 6.74976H16.3633V7.86662H10.3633V6.74976Z" fill="black"/>
<path d="M22.0913 7.8667L20.4549 6.1914L19.6367 6.78282L21.9293 9.54199L27.2731 5.40765L26.4549 4.51611L22.0913 7.8667Z" fill="black"/>
</svg>
