<svg width="20" height="26" viewBox="0 0 20 26" fill="none" xmlns="http://www.w3.org/2000/svg">
<path d="M19.5773 20.1046C19.503 20.0564 18.9441 19.6648 18.3845 18.4804C17.3568 16.3053 17.141 13.2412 17.141 11.0539C17.141 11.0443 17.1408 11.0349 17.1405 11.0254C17.1293 8.13453 15.3982 5.64246 12.9211 4.52432V2.81427C12.9211 1.26247 11.6607 0 10.1114 0H9.87857C8.32933 0 7.06893 1.26247 7.06893 2.81427V4.52422C4.58348 5.64597 2.84895 8.15077 2.84895 11.0539C2.84895 13.2412 2.63323 16.3052 1.60549 18.4804C1.0459 19.6648 0.486999 20.0563 0.41269 20.1046C0.0997625 20.2494 -0.0545303 20.5839 0.0174598 20.923C0.0901407 21.2653 0.410174 21.5014 0.759663 21.5014H6.18468C6.21497 23.5807 7.91204 25.2631 9.99502 25.2631C12.078 25.2631 13.7751 23.5807 13.8054 21.5014H19.2304C19.5798 21.5014 19.8999 21.2653 19.9726 20.923C20.0445 20.5839 19.8902 20.2493 19.5773 20.1046ZM8.54925 2.81427C8.54925 2.08001 9.1456 1.48268 9.87862 1.48268H10.1115C10.8445 1.48268 11.4408 2.08001 11.4408 2.81427V4.04373C10.9737 3.94717 10.4901 3.89635 9.99482 3.89635C9.49972 3.89635 9.01627 3.94712 8.5493 4.04358V2.81427H8.54925ZM9.99502 23.7805C8.72826 23.7805 7.69499 22.7632 7.66494 21.5014H12.325C12.295 22.7631 11.2618 23.7805 9.99502 23.7805ZM12.9753 20.0187C12.9751 20.0187 2.44642 20.0187 2.44642 20.0187C2.57446 19.8191 2.70478 19.5932 2.8343 19.3378C3.82627 17.3818 4.32927 14.5946 4.32927 11.0539C4.32927 7.92473 6.87083 5.37902 9.99477 5.37902C13.1187 5.37902 15.6603 7.92473 15.6603 11.0563C15.6603 11.0655 15.6604 11.0745 15.6608 11.0836C15.6636 14.6102 16.1665 17.3873 17.1557 19.3378C17.2853 19.5932 17.4156 19.8191 17.5436 20.0187H12.9753Z" fill="black"/>
</svg>
