<svg width="24" height="24" viewBox="0 0 24 24" fill="none" xmlns="http://www.w3.org/2000/svg">
<path d="M16.5983 4.6665H2.6357C1.3523 4.6665 0.308594 5.713 0.308594 6.99984V16.3332C0.308594 17.62 1.3523 18.6665 2.6357 18.6665H3.79925V22.1665C3.79925 22.6145 4.0564 23.024 4.45782 23.2177C4.61956 23.2947 4.79176 23.3332 4.96281 23.3332C5.22228 23.3332 5.47942 23.2457 5.69003 23.0777L11.189 18.6665H16.5983C17.8817 18.6665 18.9254 17.62 18.9254 16.3332V6.99984C18.9254 5.713 17.8817 4.6665 16.5983 4.6665ZM16.5983 16.3332H10.7806H10.3722L10.0545 16.5887H10.0534L7.20381 18.8742L6.12636 19.7387V18.6665V17.4998V16.3332H4.96281H3.79925H2.6357V6.99984H16.5983V16.3332Z" fill="black"/>
<path d="M22.4148 0H6.125V2.33333H21.2512V12.8333H23.5783V1.16667C23.5783 0.522667 23.0582 0 22.4148 0Z" fill="black"/>
</svg>
