<svg width="24" height="24" viewBox="0 0 24 24" fill="none" xmlns="http://www.w3.org/2000/svg">
<path d="M1.51064 13.1666H2.6773V15.5V21.3333C2.6773 22.6201 3.7238 23.6666 5.01064 23.6666H8.51064H15.5106H19.0106C20.2975 23.6666 21.344 22.6201 21.344 21.3333V15.5V13.1666H22.5106C22.982 13.1666 23.409 12.882 23.5886 12.4468C23.7695 12.0105 23.6691 11.5088 23.3355 11.1751L12.8355 0.675133C12.3793 0.218966 11.642 0.218966 11.1858 0.675133L0.685804 11.1751C0.352137 11.5088 0.251804 12.0105 0.432637 12.4468C0.612304 12.882 1.0393 13.1666 1.51064 13.1666ZM9.6773 21.3333V15.5H14.344V21.3333H9.6773ZM12.0106 3.14963L19.0106 10.1496V15.5L19.0118 21.3333H16.6773V15.5C16.6773 14.2131 15.6308 13.1666 14.344 13.1666H9.6773C8.39047 13.1666 7.34397 14.2131 7.34397 15.5V21.3333H5.01064V15.5V12V10.1496L12.0106 3.14963Z" fill="black"/>
</svg>
