<svg width="79" height="78" viewBox="0 0 79 78" fill="none" xmlns="http://www.w3.org/2000/svg">
<g filter="url(#filter0_d)">
<ellipse cx="39.9912" cy="35" rx="34.999" ry="35" fill="white"/>
<ellipse cx="39.9912" cy="35" rx="34.999" ry="35" fill="url(#paint0_linear)"/>
<path d="M73.9902 35C73.9902 53.7777 58.7683 69 39.9912 69C21.2141 69 5.99219 53.7777 5.99219 35C5.99219 16.2223 21.2141 1 39.9912 1C58.7683 1 73.9902 16.2223 73.9902 35Z" stroke="black" stroke-width="2"/>
</g>
<path d="M69.4905 35C69.4905 51.2924 56.2833 64.5 39.9913 64.5C23.6994 64.5 10.4922 51.2924 10.4922 35C10.4922 18.7076 23.6994 5.5 39.9913 5.5C56.2833 5.5 69.4905 18.7076 69.4905 35Z" stroke="black"/>
<path d="M28.1396 50.6855C28.068 51.444 27.7881 52.0365 27.2998 52.4629C26.8115 52.8861 26.1621 53.0977 25.3516 53.0977C24.7852 53.0977 24.2855 52.9642 23.8525 52.6973C23.4229 52.4271 23.0908 52.0446 22.8564 51.5498C22.6221 51.055 22.5 50.4805 22.4902 49.8262V49.1621C22.4902 48.4915 22.609 47.9007 22.8467 47.3896C23.0843 46.8786 23.4245 46.4847 23.8672 46.208C24.3132 45.9313 24.8275 45.793 25.4102 45.793C26.1947 45.793 26.8262 46.0062 27.3047 46.4326C27.7832 46.859 28.0615 47.4613 28.1396 48.2393H26.9092C26.8506 47.7282 26.7008 47.3604 26.46 47.1357C26.2223 46.9079 25.8724 46.7939 25.4102 46.7939C24.873 46.7939 24.4596 46.9909 24.1699 47.3848C23.8835 47.7754 23.737 48.3499 23.7305 49.1084V49.7383C23.7305 50.5065 23.8672 51.0924 24.1406 51.4961C24.4173 51.8997 24.821 52.1016 25.3516 52.1016C25.8366 52.1016 26.2012 51.9925 26.4453 51.7744C26.6895 51.5563 26.8441 51.1934 26.9092 50.6855H28.1396ZM31.0107 50.9102H30.4102V53H29.2236V47.7168H30.4102V49.8262H30.9326L32.3926 47.7168H33.8574L31.9482 50.2461L34.0186 53H32.4756L31.0107 50.9102ZM37.8271 53C37.7751 52.8991 37.7295 52.7347 37.6904 52.5068C37.3128 52.9007 36.8506 53.0977 36.3037 53.0977C35.7731 53.0977 35.3402 52.9463 35.0049 52.6436C34.6696 52.3408 34.502 51.9665 34.502 51.5205C34.502 50.9574 34.7103 50.526 35.127 50.2266C35.5469 49.9238 36.1458 49.7725 36.9238 49.7725H37.6514V49.4258C37.6514 49.1523 37.5749 48.9342 37.4219 48.7715C37.2689 48.6055 37.0361 48.5225 36.7236 48.5225C36.4535 48.5225 36.2321 48.5908 36.0596 48.7275C35.887 48.861 35.8008 49.0319 35.8008 49.2402H34.6143C34.6143 48.9505 34.7103 48.6803 34.9023 48.4297C35.0944 48.1758 35.3548 47.9772 35.6836 47.834C36.0156 47.6908 36.3851 47.6191 36.792 47.6191C37.4105 47.6191 37.9036 47.7754 38.2715 48.0879C38.6393 48.3971 38.8281 48.8333 38.8379 49.3965V51.7793C38.8379 52.2546 38.9046 52.6338 39.0381 52.917V53H37.8271ZM36.5234 52.1455C36.7578 52.1455 36.9775 52.0885 37.1826 51.9746C37.391 51.8607 37.5472 51.7077 37.6514 51.5156V50.5195H37.0117C36.5723 50.5195 36.2419 50.596 36.0205 50.749C35.7992 50.902 35.6885 51.1185 35.6885 51.3984C35.6885 51.6263 35.7633 51.8086 35.9131 51.9453C36.0661 52.0788 36.2695 52.1455 36.5234 52.1455ZM44.5557 53H43.3691V50.8662H41.3135V53H40.127V47.7168H41.3135V49.9189H43.3691V47.7168H44.5557V53ZM48.1494 53.0977C47.3975 53.0977 46.7871 52.8617 46.3184 52.3896C45.8529 51.9144 45.6201 51.2829 45.6201 50.4951V50.3486C45.6201 49.8213 45.721 49.3509 45.9229 48.9375C46.1279 48.5208 46.4144 48.1969 46.7822 47.9658C47.1501 47.7347 47.5602 47.6191 48.0127 47.6191C48.7321 47.6191 49.2871 47.8486 49.6777 48.3076C50.0716 48.7666 50.2686 49.416 50.2686 50.2559V50.7344H46.8164C46.8522 51.1706 46.9971 51.5156 47.251 51.7695C47.5081 52.0234 47.8304 52.1504 48.2178 52.1504C48.7614 52.1504 49.2041 51.9307 49.5459 51.4912L50.1855 52.1016C49.974 52.4173 49.6908 52.6631 49.3359 52.8389C48.9844 53.0114 48.5889 53.0977 48.1494 53.0977ZM48.0078 48.5713C47.6823 48.5713 47.4186 48.6852 47.2168 48.9131C47.0182 49.141 46.8913 49.4583 46.8359 49.8652H49.0967V49.7773C49.0706 49.3802 48.9648 49.0807 48.7793 48.8789C48.5938 48.6738 48.3366 48.5713 48.0078 48.5713ZM55.8203 50.4121C55.8203 51.2292 55.6348 51.8818 55.2637 52.3701C54.8926 52.8551 54.3945 53.0977 53.7695 53.0977C53.1901 53.0977 52.7262 52.9072 52.3779 52.5264V55.0312H51.1914V47.7168H52.2852L52.334 48.2539C52.6823 47.8307 53.1559 47.6191 53.7549 47.6191C54.3994 47.6191 54.904 47.86 55.2686 48.3418C55.6364 48.8203 55.8203 49.486 55.8203 50.3389V50.4121ZM54.6387 50.3096C54.6387 49.7822 54.5329 49.3639 54.3213 49.0547C54.113 48.7454 53.8135 48.5908 53.4229 48.5908C52.9378 48.5908 52.5895 48.791 52.3779 49.1914V51.5352C52.5928 51.9453 52.9443 52.1504 53.4326 52.1504C53.8102 52.1504 54.1048 51.999 54.3164 51.6963C54.5312 51.3903 54.6387 50.9281 54.6387 50.3096Z" fill="black"/>
<defs>
<filter id="filter0_d" x="0.992188" y="0" width="77.998" height="78" filterUnits="userSpaceOnUse" color-interpolation-filters="sRGB">
<feFlood flood-opacity="0" result="BackgroundImageFix"/>
<feColorMatrix in="SourceAlpha" type="matrix" values="0 0 0 0 0 0 0 0 0 0 0 0 0 0 0 0 0 0 127 0"/>
<feOffset dy="4"/>
<feGaussianBlur stdDeviation="2"/>
<feColorMatrix type="matrix" values="0 0 0 0 0 0 0 0 0 0 0 0 0 0 0 0 0 0 0.25 0"/>
<feBlend mode="normal" in2="BackgroundImageFix" result="effect1_dropShadow"/>
<feBlend mode="normal" in="SourceGraphic" in2="effect1_dropShadow" result="shape"/>
</filter>
<linearGradient id="paint0_linear" x1="39.9912" y1="0" x2="39.9912" y2="70" gradientUnits="userSpaceOnUse">
<stop stop-color="#DDDDDD"/>
<stop offset="1" stop-color="white" stop-opacity="0"/>
</linearGradient>
</defs>
</svg>
