<svg width="32" height="24" viewBox="0 0 32 24" fill="none" xmlns="http://www.w3.org/2000/svg">
<path d="M4.85935 12.6648C5.44225 12.7516 5.83362 13.2873 5.65278 13.8415L3.62956 20.0431C3.05454 21.8062 4.36553 23.6127 6.21968 23.6127H9.88066L12.3024 16.3473H15.7989L17.0098 12.7145H20.839L25.0771 0H5.80658C3.15192 6.10577e-05 0.992188 2.15986 0.992188 4.81452V8.17368C0.992188 10.4519 2.67141 12.3389 4.85935 12.6648ZM11.5832 12.7612L8.5715 21.7964H6.21968C5.60161 21.7964 5.16463 21.1941 5.35635 20.6066L7.37956 14.4049C7.56126 13.848 7.55516 13.2564 7.37236 12.7146H11.5998C11.5943 12.7302 11.5884 12.7455 11.5832 12.7612ZM14.4898 14.5309H12.9078L13.3063 13.3356C13.4301 12.9641 13.7763 12.7146 14.1678 12.7146H15.0953L14.4898 14.5309ZM22.5571 1.81641L19.53 10.8982H17.6153L20.6425 1.81641H22.5571ZM2.80848 4.81452C2.80848 3.16139 4.15342 1.81647 5.80651 1.81647H18.7279L15.7008 10.8983C15.6542 10.8983 7.13161 10.8983 5.29309 10.8983C3.53413 10.5314 2.80842 9.41034 2.80842 8.17374V4.81452H2.80848Z" fill="black"/>
<path d="M29.913 11.3833C31.2543 10.0425 31.993 8.25714 31.993 6.35623C31.993 4.45532 31.2543 2.66999 29.913 1.3291L28.6289 2.61369C29.627 3.6115 30.1767 4.9406 30.1767 6.35623C30.1767 7.77185 29.627 9.10102 28.629 10.0987L29.913 11.3833Z" fill="black"/>
<path d="M27.343 8.81578C28.6985 7.46012 28.6985 5.25435 27.3429 3.89868L26.0586 5.18303C26.706 5.83049 26.706 6.88392 26.0586 7.53143L27.343 8.81578Z" fill="black"/>
</svg>
