<svg width="26" height="25" viewBox="0 0 26 25" fill="none" xmlns="http://www.w3.org/2000/svg">
<path d="M14.0215 0C13.617 0 13.2891 0.32793 13.2891 0.732422V11.0352C13.2891 11.4396 13.617 11.7676 14.0215 11.7676H24.2751C24.6796 11.7676 25.0075 11.4396 25.0075 11.0352C25.0075 4.97437 20.0893 0 14.0215 0ZM14.7539 10.3027V1.49287C19.4225 1.85151 23.1601 5.60952 23.5151 10.3027H14.7539Z" fill="black"/>
<path d="M15.3781 23.3591L11.8239 13.8327V3.71094C11.8239 3.30645 11.496 2.97852 11.0915 2.97852C5.06021 2.97852 0.0078125 7.86851 0.0078125 13.9648C0.0078125 20.0156 5.01123 25 11.0915 25C12.4184 25 13.7165 24.7647 14.9498 24.3007C15.3276 24.1585 15.5192 23.7374 15.3781 23.3591ZM11.0915 23.5352C5.78763 23.5352 1.47261 19.2419 1.47261 13.9648C1.47261 8.95854 5.39604 4.84224 10.3591 4.4707V13.9648C10.3591 14.0522 10.3747 14.139 10.4053 14.2209L13.7406 23.1605C12.8834 23.4094 11.9954 23.5352 11.0915 23.5352Z" fill="black"/>
<path d="M24.2751 13.2324H14.0214C13.7815 13.2324 13.5567 13.35 13.4198 13.5472C13.2829 13.7443 13.2514 13.996 13.3353 14.2209L16.9357 23.8712C17.0779 24.2522 17.5022 24.4428 17.8798 24.3007C22.1431 22.6967 25.0075 18.5431 25.0075 13.9648C25.0075 13.5604 24.6795 13.2324 24.2751 13.2324ZM18.0413 22.644L15.0764 14.6924H23.5144C23.2496 18.1244 21.1409 21.191 18.0413 22.644Z" fill="black"/>
</svg>
