<svg width="26" height="25" viewBox="0 0 26 25" fill="none" xmlns="http://www.w3.org/2000/svg">
<path d="M14.7305 0C14.3271 0 14 0.32793 14 0.732422V11.0352C14 11.4396 14.3271 11.7676 14.7305 11.7676H24.957C25.3605 11.7676 25.6875 11.4396 25.6875 11.0352C25.6875 4.97437 20.7823 0 14.7305 0ZM15.4609 10.3027V1.49287C20.1172 1.85151 23.845 5.60952 24.1991 10.3027H15.4609Z" fill="black"/>
<path d="M16.0836 23.3591L12.5388 13.8327V3.71094C12.5388 3.30645 12.2117 2.97852 11.8083 2.97852C5.79297 2.97852 0.753906 7.86851 0.753906 13.9648C0.753906 20.0156 5.74413 25 11.8083 25C13.1317 25 14.4265 24.7647 15.6565 24.3007C16.0333 24.1585 16.2244 23.7374 16.0836 23.3591ZM11.8083 23.5352C6.51847 23.5352 2.21484 19.2419 2.21484 13.9648C2.21484 8.95854 6.12792 4.84224 11.0779 4.4707V13.9648C11.0779 14.0522 11.0934 14.139 11.1239 14.2209L14.4504 23.1605C13.5955 23.4094 12.7098 23.5352 11.8083 23.5352Z" fill="black"/>
<path d="M24.957 13.2324H14.7304C14.4911 13.2324 14.2669 13.35 14.1304 13.5472C13.9939 13.7443 13.9624 13.996 14.0461 14.2209L17.637 23.8712C17.7788 24.2522 18.202 24.4428 18.5787 24.3007C22.8307 22.6967 25.6875 18.5431 25.6875 13.9648C25.6875 13.5604 25.3604 13.2324 24.957 13.2324ZM18.7397 22.644L15.7826 14.6924H24.1983C23.9342 18.1244 21.8311 21.191 18.7397 22.644Z" fill="black"/>
</svg>
